<mxfile host="Electron" modified="2024-06-16T07:38:24.938Z" agent="Mozilla/5.0 (Windows NT 10.0; Win64; x64) AppleWebKit/537.36 (KHTML, like Gecko) draw.io/21.6.8 Chrome/114.0.5735.289 Electron/25.5.0 Safari/537.36" etag="8moX9xGPSTaYT2kB0NIa" version="21.6.8" type="device" pages="2">
  <diagram name="Page-1" id="Ejmvdk5syOnLpEsa1ZXs">
    <mxGraphModel dx="2268" dy="820" grid="1" gridSize="10" guides="1" tooltips="1" connect="1" arrows="1" fold="1" page="1" pageScale="1" pageWidth="850" pageHeight="1100" math="0" shadow="0">
      <root>
        <mxCell id="0" />
        <mxCell id="1" parent="0" />
        <mxCell id="VRN_034XBr_03XmDZoK8-1" value="" style="rounded=0;whiteSpace=wrap;html=1;fillColor=none;" parent="1" vertex="1">
          <mxGeometry x="200" y="50" width="360" height="800" as="geometry" />
        </mxCell>
        <mxCell id="8HfrmzjM4NSn1dESdiWN-2" value="Người dùng" style="shape=umlActor;verticalLabelPosition=bottom;verticalAlign=top;html=1;outlineConnect=0;" parent="1" vertex="1">
          <mxGeometry x="40" y="180" width="30" height="60" as="geometry" />
        </mxCell>
        <mxCell id="llL3fZkjYuzIA0S_gjn7-4" style="edgeStyle=orthogonalEdgeStyle;rounded=0;orthogonalLoop=1;jettySize=auto;html=1;endArrow=block;endFill=0;" edge="1" parent="1" source="8HfrmzjM4NSn1dESdiWN-8">
          <mxGeometry relative="1" as="geometry">
            <mxPoint x="70" y="270" as="targetPoint" />
          </mxGeometry>
        </mxCell>
        <mxCell id="8HfrmzjM4NSn1dESdiWN-8" value="Quản lý&amp;nbsp;" style="shape=umlActor;verticalLabelPosition=bottom;verticalAlign=top;html=1;outlineConnect=0;" parent="1" vertex="1">
          <mxGeometry x="90" y="430" width="30" height="60" as="geometry" />
        </mxCell>
        <mxCell id="8HfrmzjM4NSn1dESdiWN-10" value="Đăng nhập" style="ellipse;whiteSpace=wrap;html=1;" parent="1" vertex="1">
          <mxGeometry x="240" y="80" width="75" height="50" as="geometry" />
        </mxCell>
        <mxCell id="8HfrmzjM4NSn1dESdiWN-11" value="Đăng ký" style="ellipse;whiteSpace=wrap;html=1;" parent="1" vertex="1">
          <mxGeometry x="410" y="80" width="75" height="50" as="geometry" />
        </mxCell>
        <mxCell id="8HfrmzjM4NSn1dESdiWN-12" value="&amp;lt;&amp;lt;extend&amp;gt;&amp;gt;" style="html=1;verticalAlign=bottom;labelBackgroundColor=none;endArrow=open;endFill=0;dashed=1;rounded=0;entryX=1;entryY=0.5;entryDx=0;entryDy=0;exitX=0;exitY=0.5;exitDx=0;exitDy=0;" parent="1" source="8HfrmzjM4NSn1dESdiWN-11" target="8HfrmzjM4NSn1dESdiWN-10" edge="1">
          <mxGeometry width="160" relative="1" as="geometry">
            <mxPoint x="340" y="420" as="sourcePoint" />
            <mxPoint x="500" y="420" as="targetPoint" />
          </mxGeometry>
        </mxCell>
        <mxCell id="8HfrmzjM4NSn1dESdiWN-13" value="Tạo nhà hàng" style="ellipse;whiteSpace=wrap;html=1;" parent="1" vertex="1">
          <mxGeometry x="230" y="390" width="75" height="50" as="geometry" />
        </mxCell>
        <mxCell id="8HfrmzjM4NSn1dESdiWN-14" value="Thêm món ăn" style="ellipse;whiteSpace=wrap;html=1;" parent="1" vertex="1">
          <mxGeometry x="230" y="460" width="75" height="50" as="geometry" />
        </mxCell>
        <mxCell id="8HfrmzjM4NSn1dESdiWN-15" value="" style="endArrow=none;html=1;rounded=0;entryX=0;entryY=0.5;entryDx=0;entryDy=0;" parent="1" target="8HfrmzjM4NSn1dESdiWN-10" edge="1">
          <mxGeometry width="50" height="50" relative="1" as="geometry">
            <mxPoint x="110" y="210" as="sourcePoint" />
            <mxPoint x="450" y="400" as="targetPoint" />
          </mxGeometry>
        </mxCell>
        <mxCell id="8HfrmzjM4NSn1dESdiWN-16" value="" style="endArrow=none;html=1;rounded=0;entryX=0;entryY=0.5;entryDx=0;entryDy=0;" parent="1" target="8HfrmzjM4NSn1dESdiWN-13" edge="1">
          <mxGeometry width="50" height="50" relative="1" as="geometry">
            <mxPoint x="120" y="470" as="sourcePoint" />
            <mxPoint x="450" y="400" as="targetPoint" />
          </mxGeometry>
        </mxCell>
        <mxCell id="8HfrmzjM4NSn1dESdiWN-17" value="" style="endArrow=none;html=1;rounded=0;entryX=0;entryY=0.5;entryDx=0;entryDy=0;" parent="1" target="8HfrmzjM4NSn1dESdiWN-14" edge="1">
          <mxGeometry width="50" height="50" relative="1" as="geometry">
            <mxPoint x="120" y="470" as="sourcePoint" />
            <mxPoint x="250" y="295" as="targetPoint" />
          </mxGeometry>
        </mxCell>
        <mxCell id="8HfrmzjM4NSn1dESdiWN-18" value="Quản lý đơn hàng" style="ellipse;whiteSpace=wrap;html=1;" parent="1" vertex="1">
          <mxGeometry x="230" y="550" width="75" height="50" as="geometry" />
        </mxCell>
        <mxCell id="8HfrmzjM4NSn1dESdiWN-19" value="" style="endArrow=none;html=1;rounded=0;entryX=0;entryY=0.5;entryDx=0;entryDy=0;" parent="1" target="8HfrmzjM4NSn1dESdiWN-18" edge="1">
          <mxGeometry width="50" height="50" relative="1" as="geometry">
            <mxPoint x="120" y="470" as="sourcePoint" />
            <mxPoint x="250" y="385" as="targetPoint" />
          </mxGeometry>
        </mxCell>
        <mxCell id="8HfrmzjM4NSn1dESdiWN-20" value="Xác nhận đơn hàng" style="ellipse;whiteSpace=wrap;html=1;" parent="1" vertex="1">
          <mxGeometry x="350" y="500" width="90" height="60" as="geometry" />
        </mxCell>
        <mxCell id="8HfrmzjM4NSn1dESdiWN-21" value="In phiếu giao hàng" style="ellipse;whiteSpace=wrap;html=1;" parent="1" vertex="1">
          <mxGeometry x="350" y="600" width="90" height="60" as="geometry" />
        </mxCell>
        <mxCell id="8HfrmzjM4NSn1dESdiWN-22" value="" style="endArrow=none;html=1;rounded=0;entryX=0;entryY=0.5;entryDx=0;entryDy=0;exitX=1;exitY=0;exitDx=0;exitDy=0;" parent="1" source="8HfrmzjM4NSn1dESdiWN-18" target="8HfrmzjM4NSn1dESdiWN-20" edge="1">
          <mxGeometry width="50" height="50" relative="1" as="geometry">
            <mxPoint x="130" y="410" as="sourcePoint" />
            <mxPoint x="250" y="475" as="targetPoint" />
          </mxGeometry>
        </mxCell>
        <mxCell id="8HfrmzjM4NSn1dESdiWN-23" value="" style="endArrow=none;html=1;rounded=0;entryX=0;entryY=0.5;entryDx=0;entryDy=0;exitX=1;exitY=1;exitDx=0;exitDy=0;" parent="1" source="8HfrmzjM4NSn1dESdiWN-18" target="8HfrmzjM4NSn1dESdiWN-21" edge="1">
          <mxGeometry width="50" height="50" relative="1" as="geometry">
            <mxPoint x="314" y="457" as="sourcePoint" />
            <mxPoint x="370" y="440" as="targetPoint" />
          </mxGeometry>
        </mxCell>
        <mxCell id="8HfrmzjM4NSn1dESdiWN-25" value="Tìm kiếm" style="ellipse;whiteSpace=wrap;html=1;" parent="1" vertex="1">
          <mxGeometry x="240" y="185" width="75" height="50" as="geometry" />
        </mxCell>
        <mxCell id="8HfrmzjM4NSn1dESdiWN-26" value="Tìm món ăn" style="ellipse;whiteSpace=wrap;html=1;" parent="1" vertex="1">
          <mxGeometry x="382.5" y="150" width="75" height="50" as="geometry" />
        </mxCell>
        <mxCell id="8HfrmzjM4NSn1dESdiWN-27" value="Tìm nhà hàng" style="ellipse;whiteSpace=wrap;html=1;" parent="1" vertex="1">
          <mxGeometry x="388" y="220" width="75" height="50" as="geometry" />
        </mxCell>
        <mxCell id="8HfrmzjM4NSn1dESdiWN-29" value="&amp;lt;&amp;lt;extend&amp;gt;&amp;gt;" style="html=1;verticalAlign=bottom;labelBackgroundColor=none;endArrow=open;endFill=0;dashed=1;rounded=0;entryX=1;entryY=0;entryDx=0;entryDy=0;exitX=0;exitY=0.5;exitDx=0;exitDy=0;" parent="1" source="8HfrmzjM4NSn1dESdiWN-26" target="8HfrmzjM4NSn1dESdiWN-25" edge="1">
          <mxGeometry width="160" relative="1" as="geometry">
            <mxPoint x="420" y="115" as="sourcePoint" />
            <mxPoint x="325" y="115" as="targetPoint" />
          </mxGeometry>
        </mxCell>
        <mxCell id="8HfrmzjM4NSn1dESdiWN-30" value="&amp;lt;&amp;lt;extend&amp;gt;&amp;gt;" style="html=1;verticalAlign=bottom;labelBackgroundColor=none;endArrow=open;endFill=0;dashed=1;rounded=0;entryX=1;entryY=1;entryDx=0;entryDy=0;exitX=0;exitY=0.5;exitDx=0;exitDy=0;" parent="1" source="8HfrmzjM4NSn1dESdiWN-27" target="8HfrmzjM4NSn1dESdiWN-25" edge="1">
          <mxGeometry width="160" relative="1" as="geometry">
            <mxPoint x="393" y="185" as="sourcePoint" />
            <mxPoint x="314" y="202" as="targetPoint" />
          </mxGeometry>
        </mxCell>
        <mxCell id="8HfrmzjM4NSn1dESdiWN-31" value="" style="endArrow=none;html=1;rounded=0;entryX=0;entryY=0.5;entryDx=0;entryDy=0;" parent="1" target="8HfrmzjM4NSn1dESdiWN-25" edge="1">
          <mxGeometry width="50" height="50" relative="1" as="geometry">
            <mxPoint x="110" y="210" as="sourcePoint" />
            <mxPoint x="450" y="300" as="targetPoint" />
          </mxGeometry>
        </mxCell>
        <mxCell id="8HfrmzjM4NSn1dESdiWN-32" value="Nhận đơn giao" style="ellipse;whiteSpace=wrap;html=1;" parent="1" vertex="1">
          <mxGeometry x="230" y="770" width="75" height="50" as="geometry" />
        </mxCell>
        <mxCell id="8HfrmzjM4NSn1dESdiWN-33" value="" style="endArrow=none;html=1;rounded=0;exitX=0;exitY=0.5;exitDx=0;exitDy=0;" parent="1" source="8HfrmzjM4NSn1dESdiWN-32" edge="1">
          <mxGeometry width="50" height="50" relative="1" as="geometry">
            <mxPoint x="400" y="350" as="sourcePoint" />
            <mxPoint x="10" y="520" as="targetPoint" />
          </mxGeometry>
        </mxCell>
        <mxCell id="8HfrmzjM4NSn1dESdiWN-35" value="Xác nhận giao thành công" style="ellipse;whiteSpace=wrap;html=1;" parent="1" vertex="1">
          <mxGeometry x="290" y="690" width="85" height="50" as="geometry" />
        </mxCell>
        <mxCell id="8HfrmzjM4NSn1dESdiWN-37" value="" style="endArrow=none;html=1;rounded=0;exitX=0;exitY=0.5;exitDx=0;exitDy=0;" parent="1" source="8HfrmzjM4NSn1dESdiWN-35" edge="1">
          <mxGeometry width="50" height="50" relative="1" as="geometry">
            <mxPoint x="595" y="365" as="sourcePoint" />
            <mxPoint x="10" y="520" as="targetPoint" />
          </mxGeometry>
        </mxCell>
        <mxCell id="8HfrmzjM4NSn1dESdiWN-38" value="Đặt hàng" style="ellipse;whiteSpace=wrap;html=1;" parent="1" vertex="1">
          <mxGeometry x="240" y="260" width="75" height="50" as="geometry" />
        </mxCell>
        <mxCell id="8HfrmzjM4NSn1dESdiWN-40" value="" style="endArrow=none;html=1;rounded=0;entryX=0;entryY=0.5;entryDx=0;entryDy=0;" parent="1" target="8HfrmzjM4NSn1dESdiWN-38" edge="1">
          <mxGeometry width="50" height="50" relative="1" as="geometry">
            <mxPoint x="110" y="210" as="sourcePoint" />
            <mxPoint x="250" y="115" as="targetPoint" />
          </mxGeometry>
        </mxCell>
        <mxCell id="8HfrmzjM4NSn1dESdiWN-41" value="Đánh giá" style="ellipse;whiteSpace=wrap;html=1;" parent="1" vertex="1">
          <mxGeometry x="305" y="340" width="75" height="50" as="geometry" />
        </mxCell>
        <mxCell id="8HfrmzjM4NSn1dESdiWN-43" value="" style="endArrow=none;html=1;rounded=0;entryX=0;entryY=0.5;entryDx=0;entryDy=0;" parent="1" target="8HfrmzjM4NSn1dESdiWN-41" edge="1">
          <mxGeometry width="50" height="50" relative="1" as="geometry">
            <mxPoint x="110" y="210" as="sourcePoint" />
            <mxPoint x="450" y="300" as="targetPoint" />
          </mxGeometry>
        </mxCell>
        <mxCell id="llL3fZkjYuzIA0S_gjn7-5" style="edgeStyle=orthogonalEdgeStyle;rounded=0;orthogonalLoop=1;jettySize=auto;html=1;endArrow=block;endFill=0;" edge="1" parent="1" source="llL3fZkjYuzIA0S_gjn7-1">
          <mxGeometry relative="1" as="geometry">
            <mxPoint x="40" y="270" as="targetPoint" />
          </mxGeometry>
        </mxCell>
        <mxCell id="llL3fZkjYuzIA0S_gjn7-1" value="Tài xế" style="shape=umlActor;verticalLabelPosition=bottom;verticalAlign=top;html=1;outlineConnect=0;" vertex="1" parent="1">
          <mxGeometry x="-10" y="430" width="30" height="60" as="geometry" />
        </mxCell>
      </root>
    </mxGraphModel>
  </diagram>
  <diagram id="MavAF4JmOdheDZfPtCtE" name="Page-2">
    <mxGraphModel dx="1418" dy="820" grid="1" gridSize="10" guides="1" tooltips="1" connect="1" arrows="1" fold="1" page="1" pageScale="1" pageWidth="850" pageHeight="1100" math="0" shadow="0">
      <root>
        <mxCell id="0" />
        <mxCell id="1" parent="0" />
        <mxCell id="EhA_68bGaD0RaLV7P0_v-1" value="Sơ đồ hoạt động Đặt và giao hàng" style="swimlane;html=1;childLayout=stackLayout;startSize=20;rounded=0;shadow=0;comic=0;labelBackgroundColor=none;strokeWidth=1;fontFamily=Verdana;fontSize=12;align=center;" parent="1" vertex="1">
          <mxGeometry x="40" y="20" width="750" height="890" as="geometry" />
        </mxCell>
        <mxCell id="EhA_68bGaD0RaLV7P0_v-2" value="Người dùng" style="swimlane;html=1;startSize=20;" parent="EhA_68bGaD0RaLV7P0_v-1" vertex="1">
          <mxGeometry y="20" width="250" height="870" as="geometry" />
        </mxCell>
        <mxCell id="EhA_68bGaD0RaLV7P0_v-29" value="" style="ellipse;whiteSpace=wrap;html=1;rounded=0;shadow=0;comic=0;labelBackgroundColor=none;strokeWidth=1;fillColor=#000000;fontFamily=Verdana;fontSize=12;align=center;" parent="EhA_68bGaD0RaLV7P0_v-2" vertex="1">
          <mxGeometry x="100" y="50" width="40" height="40" as="geometry" />
        </mxCell>
        <mxCell id="EhA_68bGaD0RaLV7P0_v-75" style="edgeStyle=orthogonalEdgeStyle;rounded=0;orthogonalLoop=1;jettySize=auto;html=1;entryX=0.5;entryY=0;entryDx=0;entryDy=0;" parent="EhA_68bGaD0RaLV7P0_v-2" source="EhA_68bGaD0RaLV7P0_v-30" target="EhA_68bGaD0RaLV7P0_v-73" edge="1">
          <mxGeometry relative="1" as="geometry" />
        </mxCell>
        <mxCell id="EhA_68bGaD0RaLV7P0_v-30" value="Thêm sản phẩm vào giỏ hàng" style="rounded=1;whiteSpace=wrap;html=1;shadow=0;comic=0;labelBackgroundColor=none;strokeWidth=1;fontFamily=Verdana;fontSize=12;align=center;arcSize=50;" parent="EhA_68bGaD0RaLV7P0_v-2" vertex="1">
          <mxGeometry x="65" y="120" width="110" height="50" as="geometry" />
        </mxCell>
        <mxCell id="EhA_68bGaD0RaLV7P0_v-28" style="edgeStyle=orthogonalEdgeStyle;rounded=0;html=1;labelBackgroundColor=none;startArrow=none;startFill=0;startSize=5;endArrow=classicThin;endFill=1;endSize=5;jettySize=auto;orthogonalLoop=1;strokeWidth=1;fontFamily=Verdana;fontSize=12" parent="EhA_68bGaD0RaLV7P0_v-2" source="EhA_68bGaD0RaLV7P0_v-29" target="EhA_68bGaD0RaLV7P0_v-30" edge="1">
          <mxGeometry relative="1" as="geometry" />
        </mxCell>
        <mxCell id="EhA_68bGaD0RaLV7P0_v-73" value="Đặt hàng" style="rounded=1;whiteSpace=wrap;html=1;shadow=0;comic=0;labelBackgroundColor=none;strokeWidth=1;fontFamily=Verdana;fontSize=12;align=center;arcSize=50;" parent="EhA_68bGaD0RaLV7P0_v-2" vertex="1">
          <mxGeometry x="78.5" y="230" width="83" height="30" as="geometry" />
        </mxCell>
        <mxCell id="EhA_68bGaD0RaLV7P0_v-43" value="Đánh giá" style="rounded=1;whiteSpace=wrap;html=1;shadow=0;comic=0;labelBackgroundColor=none;strokeWidth=1;fontFamily=Verdana;fontSize=12;align=center;arcSize=50;" parent="EhA_68bGaD0RaLV7P0_v-2" vertex="1">
          <mxGeometry x="70" y="760" width="100" height="30" as="geometry" />
        </mxCell>
        <mxCell id="EhA_68bGaD0RaLV7P0_v-44" value="" style="shape=mxgraph.bpmn.shape;html=1;verticalLabelPosition=bottom;labelBackgroundColor=#ffffff;verticalAlign=top;perimeter=ellipsePerimeter;outline=end;symbol=terminate;rounded=0;shadow=0;comic=0;strokeWidth=1;fontFamily=Verdana;fontSize=12;align=center;" parent="EhA_68bGaD0RaLV7P0_v-2" vertex="1">
          <mxGeometry x="100" y="820" width="40" height="40" as="geometry" />
        </mxCell>
        <mxCell id="EhA_68bGaD0RaLV7P0_v-42" style="edgeStyle=none;rounded=0;html=1;labelBackgroundColor=none;startArrow=none;startFill=0;startSize=5;endArrow=classicThin;endFill=1;endSize=5;jettySize=auto;orthogonalLoop=1;strokeWidth=1;fontFamily=Verdana;fontSize=12" parent="EhA_68bGaD0RaLV7P0_v-2" source="EhA_68bGaD0RaLV7P0_v-43" target="EhA_68bGaD0RaLV7P0_v-44" edge="1">
          <mxGeometry relative="1" as="geometry" />
        </mxCell>
        <mxCell id="EhA_68bGaD0RaLV7P0_v-94" style="edgeStyle=orthogonalEdgeStyle;rounded=0;orthogonalLoop=1;jettySize=auto;html=1;entryX=0.5;entryY=0;entryDx=0;entryDy=0;" parent="EhA_68bGaD0RaLV7P0_v-2" source="EhA_68bGaD0RaLV7P0_v-92" target="EhA_68bGaD0RaLV7P0_v-43" edge="1">
          <mxGeometry relative="1" as="geometry" />
        </mxCell>
        <mxCell id="EhA_68bGaD0RaLV7P0_v-92" value="Thanh toán và xác nhận đã nhận đơn&amp;nbsp;" style="rounded=1;whiteSpace=wrap;html=1;shadow=0;comic=0;labelBackgroundColor=none;strokeWidth=1;fontFamily=Verdana;fontSize=12;align=center;arcSize=50;" parent="EhA_68bGaD0RaLV7P0_v-2" vertex="1">
          <mxGeometry x="55.870000000000005" y="640" width="128.26" height="66.05" as="geometry" />
        </mxCell>
        <mxCell id="EhA_68bGaD0RaLV7P0_v-11" value="Nhà hàng" style="swimlane;html=1;startSize=20;" parent="EhA_68bGaD0RaLV7P0_v-1" vertex="1">
          <mxGeometry x="250" y="20" width="250" height="870" as="geometry" />
        </mxCell>
        <mxCell id="EhA_68bGaD0RaLV7P0_v-76" value="Xác nhận đơn hàng" style="rounded=1;whiteSpace=wrap;html=1;shadow=0;comic=0;labelBackgroundColor=none;strokeWidth=1;fontFamily=Verdana;fontSize=12;align=center;arcSize=50;" parent="EhA_68bGaD0RaLV7P0_v-11" vertex="1">
          <mxGeometry x="66.16" y="225" width="110.67" height="40" as="geometry" />
        </mxCell>
        <mxCell id="EhA_68bGaD0RaLV7P0_v-78" value="Chuẩn bị đơn hàng" style="rounded=1;whiteSpace=wrap;html=1;shadow=0;comic=0;labelBackgroundColor=none;strokeWidth=1;fontFamily=Verdana;fontSize=12;align=center;arcSize=50;" parent="EhA_68bGaD0RaLV7P0_v-11" vertex="1">
          <mxGeometry x="71.5" y="340" width="100" height="36.14" as="geometry" />
        </mxCell>
        <mxCell id="EhA_68bGaD0RaLV7P0_v-79" style="edgeStyle=orthogonalEdgeStyle;rounded=0;orthogonalLoop=1;jettySize=auto;html=1;entryX=0.5;entryY=0;entryDx=0;entryDy=0;exitX=0.5;exitY=1;exitDx=0;exitDy=0;" parent="EhA_68bGaD0RaLV7P0_v-11" source="EhA_68bGaD0RaLV7P0_v-76" target="EhA_68bGaD0RaLV7P0_v-78" edge="1">
          <mxGeometry relative="1" as="geometry">
            <mxPoint x="-78" y="255" as="sourcePoint" />
            <mxPoint x="90" y="255" as="targetPoint" />
          </mxGeometry>
        </mxCell>
        <mxCell id="EhA_68bGaD0RaLV7P0_v-80" value="Đóng gói và In Phiếu giao" style="rounded=1;whiteSpace=wrap;html=1;shadow=0;comic=0;labelBackgroundColor=none;strokeWidth=1;fontFamily=Verdana;fontSize=12;align=center;arcSize=50;" parent="EhA_68bGaD0RaLV7P0_v-11" vertex="1">
          <mxGeometry x="71.49000000000002" y="430" width="100" height="36.14" as="geometry" />
        </mxCell>
        <mxCell id="EhA_68bGaD0RaLV7P0_v-81" style="edgeStyle=orthogonalEdgeStyle;rounded=0;orthogonalLoop=1;jettySize=auto;html=1;entryX=0.5;entryY=0;entryDx=0;entryDy=0;exitX=0.5;exitY=1;exitDx=0;exitDy=0;" parent="EhA_68bGaD0RaLV7P0_v-11" source="EhA_68bGaD0RaLV7P0_v-78" target="EhA_68bGaD0RaLV7P0_v-80" edge="1">
          <mxGeometry relative="1" as="geometry">
            <mxPoint x="131" y="275" as="sourcePoint" />
            <mxPoint x="132" y="350" as="targetPoint" />
          </mxGeometry>
        </mxCell>
        <mxCell id="EhA_68bGaD0RaLV7P0_v-82" value="Cập nhật trạng thái sẵn sàng giao" style="rounded=1;whiteSpace=wrap;html=1;shadow=0;comic=0;labelBackgroundColor=none;strokeWidth=1;fontFamily=Verdana;fontSize=12;align=center;arcSize=50;" parent="EhA_68bGaD0RaLV7P0_v-11" vertex="1">
          <mxGeometry x="52.32" y="510" width="138.35" height="50" as="geometry" />
        </mxCell>
        <mxCell id="EhA_68bGaD0RaLV7P0_v-83" style="edgeStyle=orthogonalEdgeStyle;rounded=0;orthogonalLoop=1;jettySize=auto;html=1;entryX=0.5;entryY=0;entryDx=0;entryDy=0;exitX=0.5;exitY=1;exitDx=0;exitDy=0;" parent="EhA_68bGaD0RaLV7P0_v-11" source="EhA_68bGaD0RaLV7P0_v-80" target="EhA_68bGaD0RaLV7P0_v-82" edge="1">
          <mxGeometry relative="1" as="geometry">
            <mxPoint x="132" y="386" as="sourcePoint" />
            <mxPoint x="131" y="440" as="targetPoint" />
          </mxGeometry>
        </mxCell>
        <mxCell id="EhA_68bGaD0RaLV7P0_v-27" value="Tài xế" style="swimlane;html=1;startSize=20;" parent="EhA_68bGaD0RaLV7P0_v-1" vertex="1">
          <mxGeometry x="500" y="20" width="250" height="870" as="geometry" />
        </mxCell>
        <mxCell id="EhA_68bGaD0RaLV7P0_v-88" style="edgeStyle=orthogonalEdgeStyle;rounded=0;orthogonalLoop=1;jettySize=auto;html=1;entryX=0.5;entryY=0;entryDx=0;entryDy=0;" parent="EhA_68bGaD0RaLV7P0_v-27" source="EhA_68bGaD0RaLV7P0_v-84" target="EhA_68bGaD0RaLV7P0_v-87" edge="1">
          <mxGeometry relative="1" as="geometry" />
        </mxCell>
        <mxCell id="EhA_68bGaD0RaLV7P0_v-84" value="Nhận đơn" style="rounded=1;whiteSpace=wrap;html=1;shadow=0;comic=0;labelBackgroundColor=none;strokeWidth=1;fontFamily=Verdana;fontSize=12;align=center;arcSize=50;" parent="EhA_68bGaD0RaLV7P0_v-27" vertex="1">
          <mxGeometry x="80" y="520" width="83.01" height="30" as="geometry" />
        </mxCell>
        <mxCell id="EhA_68bGaD0RaLV7P0_v-91" style="edgeStyle=orthogonalEdgeStyle;rounded=0;orthogonalLoop=1;jettySize=auto;html=1;" parent="EhA_68bGaD0RaLV7P0_v-27" source="EhA_68bGaD0RaLV7P0_v-87" target="EhA_68bGaD0RaLV7P0_v-89" edge="1">
          <mxGeometry relative="1" as="geometry" />
        </mxCell>
        <mxCell id="EhA_68bGaD0RaLV7P0_v-87" value="Giao hàng" style="rounded=1;whiteSpace=wrap;html=1;shadow=0;comic=0;labelBackgroundColor=none;strokeWidth=1;fontFamily=Verdana;fontSize=12;align=center;arcSize=50;" parent="EhA_68bGaD0RaLV7P0_v-27" vertex="1">
          <mxGeometry x="80" y="580" width="83.01" height="30" as="geometry" />
        </mxCell>
        <mxCell id="EhA_68bGaD0RaLV7P0_v-93" style="edgeStyle=orthogonalEdgeStyle;rounded=0;orthogonalLoop=1;jettySize=auto;html=1;" parent="EhA_68bGaD0RaLV7P0_v-27" source="EhA_68bGaD0RaLV7P0_v-89" edge="1">
          <mxGeometry relative="1" as="geometry">
            <mxPoint x="-310" y="670" as="targetPoint" />
          </mxGeometry>
        </mxCell>
        <mxCell id="EhA_68bGaD0RaLV7P0_v-89" value="Cập nhật trạng thái giao thành công" style="rounded=1;whiteSpace=wrap;html=1;shadow=0;comic=0;labelBackgroundColor=none;strokeWidth=1;fontFamily=Verdana;fontSize=12;align=center;arcSize=50;" parent="EhA_68bGaD0RaLV7P0_v-27" vertex="1">
          <mxGeometry x="63.25" y="640" width="116.51" height="60" as="geometry" />
        </mxCell>
        <mxCell id="EhA_68bGaD0RaLV7P0_v-77" style="edgeStyle=orthogonalEdgeStyle;rounded=0;orthogonalLoop=1;jettySize=auto;html=1;entryX=0;entryY=0.5;entryDx=0;entryDy=0;exitX=1;exitY=0.5;exitDx=0;exitDy=0;" parent="EhA_68bGaD0RaLV7P0_v-1" source="EhA_68bGaD0RaLV7P0_v-73" target="EhA_68bGaD0RaLV7P0_v-76" edge="1">
          <mxGeometry relative="1" as="geometry">
            <mxPoint x="130" y="200" as="sourcePoint" />
            <mxPoint x="130" y="260" as="targetPoint" />
          </mxGeometry>
        </mxCell>
        <mxCell id="EhA_68bGaD0RaLV7P0_v-86" style="edgeStyle=orthogonalEdgeStyle;rounded=0;orthogonalLoop=1;jettySize=auto;html=1;entryX=0;entryY=0.5;entryDx=0;entryDy=0;" parent="EhA_68bGaD0RaLV7P0_v-1" source="EhA_68bGaD0RaLV7P0_v-82" target="EhA_68bGaD0RaLV7P0_v-84" edge="1">
          <mxGeometry relative="1" as="geometry" />
        </mxCell>
      </root>
    </mxGraphModel>
  </diagram>
</mxfile>
